<svg width="25" height="24" viewBox="0 0 25 24" fill="none" xmlns="http://www.w3.org/2000/svg">
<path fill-rule="evenodd" clip-rule="evenodd" d="M5.36388 15.4645C6.30156 14.5268 7.57333 14 8.89941 14H16.8994C18.2255 14 19.4973 14.5268 20.4349 15.4645C21.3726 16.4021 21.8994 17.6739 21.8994 19V21C21.8994 21.5523 21.4517 22 20.8994 22C20.3471 22 19.8994 21.5523 19.8994 21V19C19.8994 18.2044 19.5833 17.4413 19.0207 16.8787C18.4581 16.3161 17.6951 16 16.8994 16H8.89941C8.10377 16 7.3407 16.3161 6.77809 16.8787C6.21548 17.4413 5.89941 18.2044 5.89941 19V21C5.89941 21.5523 5.4517 22 4.89941 22C4.34713 22 3.89941 21.5523 3.89941 21V19C3.89941 17.6739 4.4262 16.4021 5.36388 15.4645Z" fill="black"/>
<path fill-rule="evenodd" clip-rule="evenodd" d="M12.8994 4C11.2426 4 9.89941 5.34315 9.89941 7C9.89941 8.65685 11.2426 10 12.8994 10C14.5563 10 15.8994 8.65685 15.8994 7C15.8994 5.34315 14.5563 4 12.8994 4ZM7.89941 7C7.89941 4.23858 10.138 2 12.8994 2C15.6608 2 17.8994 4.23858 17.8994 7C17.8994 9.76142 15.6608 12 12.8994 12C10.138 12 7.89941 9.76142 7.89941 7Z" fill="black"/>
</svg>
